# xmcd
#
# Track frame offsets: 
#        150
#        9870
#        24218
#        45121
#        67909
#        84824
#        104721
#        118926
#        130870
#        146900
#
# Disc length: 2183 seconds
#
# Revision: 0
# Processed by: cddbd v1.5.2PL0 Copyright (c) Steve Scherf et al.
# Submitted via: ExactAudioCopyFreeDBPlugin 1.0
#
DISCID=7508850a
DTITLE=Lloyd Spiegel - Backroads
DYEAR=2018
DGENRE=Blues
TTITLE0=The Kick Around
TTITLE1=Betcha Bottom Dollar
TTITLE2=Bridges To Burn
TTITLE3=Christina
TTITLE4=The Price You Pay
TTITLE5=Man On Fire
TTITLE6=Candy Cane
TTITLE7=Sweet South West Blues
TTITLE8=Beautiful And Dangerous
TTITLE9=Emerald City Sky
EXTD=
EXTT0=
EXTT1=
EXTT2=
EXTT3=
EXTT4=
EXTT5=
EXTT6=
EXTT7=
EXTT8=
EXTT9=
PLAYORDER=
